STARTFONT 2.1
FONT -FontForge-Earth Heart-Book-R-Normal--26-250-75-75-P-139-ISO10646-1
SIZE 25 75 75
FONTBOUNDINGBOX 27 25 0 -5
COMMENT "Generated by fontforge, http://fontforge.sourceforge.net"
COMMENT "weknow (c) (weknow.deviantart.com). 2012. All Rights Reserved"
STARTPROPERTIES 40
FOUNDRY "FontForge"
FAMILY_NAME "Earth Heart"
WEIGHT_NAME "Book"
SLANT "R"
SETWIDTH_NAME "Normal"
ADD_STYLE_NAME ""
PIXEL_SIZE 26
POINT_SIZE 250
RESOLUTION_X 75
RESOLUTION_Y 75
SPACING "P"
AVERAGE_WIDTH 139
CHARSET_REGISTRY "ISO10646"
CHARSET_ENCODING "1"
FONTNAME_REGISTRY ""
CHARSET_COLLECTIONS "Symbol ISO10646-1"
FONT_NAME "EarthHeart"
FACE_NAME "Earth Heart"
COPYRIGHT "weknow (c) (weknow.deviantart.com). 2012. All Rights Reserved"
FONT_VERSION "1.00;March 22, 2018;FontCreator 11.5.0.2422 64-bit"
FONT_ASCENT 21
FONT_DESCENT 5
UNDERLINE_POSITION -4
UNDERLINE_THICKNESS 2
X_HEIGHT 12
CAP_HEIGHT 16
DEFAULT_CHAR 1
RAW_ASCENT 799
RAW_DESCENT 200
NORM_SPACE 6
RELATIVE_WEIGHT 40
RELATIVE_SETWIDTH 50
SUPERSCRIPT_X 0
SUPERSCRIPT_Y 12
SUPERSCRIPT_SIZE 16
SUBSCRIPT_X 0
SUBSCRIPT_Y 3
SUBSCRIPT_SIZE 16
AVG_LOWERCASE_WIDTH 132
AVG_UPPERCASE_WIDTH 164
ENDPROPERTIES
CHARS 244
STARTCHAR .null.dup1
ENCODING 0
SWIDTH 0 0
DWIDTH 0 0
BBX 1 1 0 0
BITMAP
00
ENDCHAR
STARTCHAR .null
ENCODING 29
SWIDTH 0 0
DWIDTH 0 0
BBX 1 1 0 0
BITMAP
00
ENDCHAR
STARTCHAR space
ENCODING 32
SWIDTH 248 0
DWIDTH 6 0
BBX 1 1 0 0
BITMAP
00
ENDCHAR
STARTCHAR exclam
ENCODING 33
SWIDTH 236 0
DWIDTH 6 0
BBX 4 17 1 0
BITMAP
60
F0
F0
F0
F0
F0
F0
F0
F0
F0
60
00
00
F0
F0
F0
60
ENDCHAR
STARTCHAR quotedbl
ENCODING 34
SWIDTH 420 0
DWIDTH 11 0
BBX 9 6 1 11
BITMAP
6300
F780
F780
F780
6300
6300
ENDCHAR
STARTCHAR numbersign
ENCODING 35
SWIDTH 736 0
DWIDTH 19 0
BBX 17 17 1 0
BITMAP
0E3800
1FFC00
1FFE00
7FFF00
FFFF80
FC1F80
7C1F80
3C1F00
3C1F00
3C1F00
7C1F80
FFFF80
FFFF80
7FFF00
1FFE00
1E3C00
0C1800
ENDCHAR
STARTCHAR dollar
ENCODING 36
SWIDTH 612 0
DWIDTH 16 0
BBX 14 22 1 -2
BITMAP
0300
0780
0780
1FF0
7FF8
7FFC
FFFC
F7BC
FF80
FFC0
7FF0
3FF8
1FFC
07FC
F7BC
FFFC
FFF8
7FF8
3FE0
0780
0780
0300
ENDCHAR
STARTCHAR percent
ENCODING 37
SWIDTH 1084 0
DWIDTH 28 0
BBX 26 17 1 0
BITMAP
1E007000
7380F000
7381E000
F3C3C000
F3C7C000
FBC78000
FFCF0000
FFDF3F00
7FBE7F80
3F3C7FC0
007CFFC0
00F8F3C0
01F0FBC0
01F0FFC0
03E07FC0
03C03F80
01C01E00
ENDCHAR
STARTCHAR ampersand
ENCODING 38
SWIDTH 719 0
DWIDTH 19 0
BBX 17 17 1 0
BITMAP
0FC000
3FF000
7FF800
FFFC00
FCFC00
F87C00
7FFC00
7FF800
7FF800
FFE000
FFC700
F7FF80
FFFF80
FFFF00
7FFF00
3FFF00
0FEF00
ENDCHAR
STARTCHAR quotesingle
ENCODING 39
SWIDTH 236 0
DWIDTH 6 0
BBX 4 6 1 11
BITMAP
60
F0
F0
F0
60
60
ENDCHAR
STARTCHAR parenleft
ENCODING 40
SWIDTH 354 0
DWIDTH 9 0
BBX 7 22 1 -2
BITMAP
0C
1E
3E
3E
7C
7C
78
F8
F8
F0
F0
F0
F0
F0
F8
78
78
7C
3E
3E
1E
0E
ENDCHAR
STARTCHAR parenright
ENCODING 41
SWIDTH 354 0
DWIDTH 9 0
BBX 7 22 1 -2
BITMAP
60
F0
F8
F8
7C
7C
3E
3E
1E
1E
1E
1E
1E
1E
3E
3E
3C
7C
F8
F8
F0
60
ENDCHAR
STARTCHAR asterisk
ENCODING 42
SWIDTH 437 0
DWIDTH 11 0
BBX 9 9 1 8
BITMAP
1C00
1E00
7F80
FF80
FF80
7F80
FF80
FF80
7380
ENDCHAR
STARTCHAR plus
ENCODING 43
SWIDTH 584 0
DWIDTH 15 0
BBX 13 13 1 2
BITMAP
0700
0F80
0F80
0F80
7FF0
FFF8
FFF8
FFF8
0F80
0F80
0F80
0780
0700
ENDCHAR
STARTCHAR comma
ENCODING 44
SWIDTH 236 0
DWIDTH 6 0
BBX 4 6 1 -1
BITMAP
60
F0
F0
F0
60
60
ENDCHAR
STARTCHAR hyphen
ENCODING 45
SWIDTH 584 0
DWIDTH 15 0
BBX 13 4 1 6
BITMAP
FFF8
FFF8
FFF8
7FF0
ENDCHAR
STARTCHAR period
ENCODING 46
SWIDTH 236 0
DWIDTH 6 0
BBX 4 4 1 0
BITMAP
F0
F0
F0
60
ENDCHAR
STARTCHAR slash
ENCODING 47
SWIDTH 605 0
DWIDTH 16 0
BBX 14 17 1 0
BITMAP
0038
007C
007C
00F8
01F8
03F0
03E0
07C0
0FC0
1F80
1F00
3E00
7E00
FC00
F800
F000
6000
ENDCHAR
STARTCHAR zero
ENCODING 48
SWIDTH 611 0
DWIDTH 16 0
BBX 14 17 1 0
BITMAP
0780
1FE0
3FF0
7FF8
7CF8
F87C
F87C
F03C
F03C
F03C
F87C
F87C
7CF8
7FF8
3FF0
1FE0
0780
ENDCHAR
STARTCHAR one
ENCODING 49
SWIDTH 291 0
DWIDTH 8 0
BBX 6 17 1 0
BITMAP
60
F0
F8
F8
78
78
7C
7C
7C
7C
7C
78
78
F8
F8
F0
60
ENDCHAR
STARTCHAR two
ENCODING 50
SWIDTH 612 0
DWIDTH 16 0
BBX 14 17 1 0
BITMAP
0FC0
7FF0
FFF8
FFFC
F8FC
407C
0FFC
3FF8
7FF0
FFE0
FC00
F038
FCFC
FFFC
7FFC
3FF0
0FC0
ENDCHAR
STARTCHAR three
ENCODING 51
SWIDTH 611 0
DWIDTH 16 0
BBX 14 17 1 0
BITMAP
0FC0
7FF0
FFF8
FFFC
F8FC
407C
03FC
07F8
07F8
07F8
00FC
603C
FCFC
FFFC
FFF8
3FF0
0FC0
ENDCHAR
STARTCHAR four
ENCODING 52
SWIDTH 611 0
DWIDTH 16 0
BBX 14 17 1 0
BITMAP
3870
7CF0
7CF8
7878
F87C
F07C
FFFC
FFFC
FFFC
FFFC
003C
007C
007C
0078
00F8
00F8
0070
ENDCHAR
STARTCHAR five
ENCODING 53
SWIDTH 612 0
DWIDTH 16 0
BBX 14 17 1 0
BITMAP
3F00
7FF0
7FFC
7FFC
F9FC
F010
FFC0
FFF0
FFF8
FFF8
01FC
603C
FCFC
FFFC
FFF8
3FF0
0FC0
ENDCHAR
STARTCHAR six
ENCODING 54
SWIDTH 612 0
DWIDTH 16 0
BBX 14 17 1 0
BITMAP
07C0
1FF8
3FFC
7FFC
7C7C
F810
FFC0
FFF0
FFF8
FFF8
FCFC
F83C
7CFC
7FFC
3FF8
1FF0
07C0
ENDCHAR
STARTCHAR seven
ENCODING 55
SWIDTH 538 0
DWIDTH 14 0
BBX 12 17 1 0
BITMAP
1E00
7F80
FFC0
FFE0
F3E0
71F0
07F0
0FF0
0FF0
07F0
00F0
01F0
01F0
01E0
03E0
03E0
01C0
ENDCHAR
STARTCHAR eight
ENCODING 56
SWIDTH 612 0
DWIDTH 16 0
BBX 14 17 1 0
BITMAP
0780
1FE0
3FF0
3FF0
3CF0
3CF0
3FF0
3FF0
7FF8
7FF8
FCFC
F03C
FCFC
FFFC
7FF8
3FF0
0FC0
ENDCHAR
STARTCHAR nine
ENCODING 57
SWIDTH 611 0
DWIDTH 16 0
BBX 14 17 1 0
BITMAP
0F80
3FE0
7FF0
FFF8
FCF8
F878
FFFC
7FFC
3FFC
1FFC
007C
607C
FCF8
FFF8
FFF0
3FE0
0F80
ENDCHAR
STARTCHAR colon
ENCODING 58
SWIDTH 236 0
DWIDTH 6 0
BBX 4 12 1 3
BITMAP
60
F0
F0
F0
00
00
00
00
F0
F0
F0
60
ENDCHAR
STARTCHAR semicolon
ENCODING 59
SWIDTH 236 0
DWIDTH 6 0
BBX 4 13 1 1
BITMAP
F0
F0
F0
60
00
00
00
60
F0
F0
F0
60
60
ENDCHAR
STARTCHAR less
ENCODING 60
SWIDTH 614 0
DWIDTH 16 0
BBX 14 16 1 1
BITMAP
0038
007C
01FC
07FC
0FF0
3FC0
7F80
FE00
FE00
7F80
3FE0
0FF0
07FC
01FC
007C
0018
ENDCHAR
STARTCHAR equal
ENCODING 61
SWIDTH 584 0
DWIDTH 15 0
BBX 13 12 1 3
BITMAP
7FF0
FFF8
FFF8
FFF8
0000
0000
0000
0000
FFF8
FFF8
FFF8
7FF0
ENDCHAR
STARTCHAR greater
ENCODING 62
SWIDTH 614 0
DWIDTH 16 0
BBX 14 16 1 1
BITMAP
6000
F800
FE00
FF80
3FC0
0FF0
07F8
01FC
01FC
07F8
1FF0
3FC0
FF80
FE00
F800
6000
ENDCHAR
STARTCHAR question
ENCODING 63
SWIDTH 667 0
DWIDTH 17 0
BBX 15 17 1 0
BITMAP
0FE0
3FF8
7FFC
FFFE
FC7E
F01E
707E
03FE
03FE
03F8
03C0
0100
0000
0380
03C0
03C0
0380
ENDCHAR
STARTCHAR at
ENCODING 64
SWIDTH 742 0
DWIDTH 19 0
BBX 17 17 1 0
BITMAP
03E000
0FF800
3FFE00
3FFE00
7E3F00
FC9F00
FBEF80
F3FF80
F7FF80
F3FF00
FBFF00
F80000
7E0000
3FFF80
3FFF80
0FFF80
03FF80
ENDCHAR
STARTCHAR A
ENCODING 65
SWIDTH 612 0
DWIDTH 16 0
BBX 14 17 1 0
BITMAP
0780
0FC0
1FE0
3FF0
3FF0
7CF8
7CF8
7878
7878
F87C
FFFC
FFFC
FFFC
FFFC
F87C
F03C
6038
ENDCHAR
STARTCHAR B
ENCODING 66
SWIDTH 545 0
DWIDTH 14 0
BBX 12 17 1 0
BITMAP
0780
1FE0
3FE0
7FF0
7CF0
F8F0
FBF0
F7F0
F7E0
F7F0
F9F0
F8F0
7DF0
7FF0
3FE0
1FE0
0780
ENDCHAR
STARTCHAR C
ENCODING 67
SWIDTH 539 0
DWIDTH 14 0
BBX 12 17 1 0
BITMAP
0780
1FE0
3FE0
7FF0
7CF0
F8F0
F800
F000
F000
F000
F800
F8F0
7CF0
7FF0
3FE0
1FE0
0780
ENDCHAR
STARTCHAR D
ENCODING 68
SWIDTH 539 0
DWIDTH 14 0
BBX 12 17 1 0
BITMAP
1E00
7F80
7FC0
FFE0
FBE0
F1F0
F1F0
F0F0
F0F0
F0F0
F1F0
F1F0
F3E0
FFE0
7FC0
7F80
1E00
ENDCHAR
STARTCHAR E
ENCODING 69
SWIDTH 539 0
DWIDTH 14 0
BBX 12 17 1 0
BITMAP
0780
1FE0
3FF0
7FF0
7CF0
F8E0
FE00
FF00
FF00
FE00
F860
F8F0
7CF0
7FF0
3FE0
1FE0
0780
ENDCHAR
STARTCHAR F
ENCODING 70
SWIDTH 538 0
DWIDTH 14 0
BBX 12 17 1 0
BITMAP
0780
1FE0
3FF0
7FF0
7CF0
F8E0
FE00
FF00
FF00
FE00
F000
F800
F800
7800
7C00
7C00
3800
ENDCHAR
STARTCHAR G
ENCODING 71
SWIDTH 545 0
DWIDTH 14 0
BBX 12 17 1 0
BITMAP
0780
1FE0
3FF0
7FF0
7CF0
F8E0
FB80
F7E0
F7E0
F7F0
F9F0
F8F0
7DF0
7FF0
3FE0
1FE0
0780
ENDCHAR
STARTCHAR H
ENCODING 72
SWIDTH 612 0
DWIDTH 16 0
BBX 14 17 1 0
BITMAP
3870
7CF0
7CF8
7878
F87C
F87C
F3FC
F7FC
F7FC
F7FC
F07C
F87C
F87C
7878
7CF8
7CF0
3870
ENDCHAR
STARTCHAR I
ENCODING 73
SWIDTH 291 0
DWIDTH 8 0
BBX 6 17 1 0
BITMAP
38
7C
7C
78
F8
F8
F0
F0
F0
F0
F0
F8
F8
78
7C
7C
38
ENDCHAR
STARTCHAR J
ENCODING 74
SWIDTH 539 0
DWIDTH 14 0
BBX 12 17 1 0
BITMAP
1E00
7F80
7FC0
FFE0
F3E0
F1F0
01F0
00F0
00F0
00F0
F1F0
F1F0
F3E0
FFE0
7FC0
7F80
1E00
ENDCHAR
STARTCHAR K
ENCODING 75
SWIDTH 610 0
DWIDTH 16 0
BBX 14 17 1 0
BITMAP
3870
7CF8
7C78
787C
F87C
F83C
F3FC
F7FC
F7F8
F7FC
F03C
F83C
F87C
7878
7CF8
7C78
3870
ENDCHAR
STARTCHAR L
ENCODING 76
SWIDTH 538 0
DWIDTH 14 0
BBX 12 17 1 0
BITMAP
3800
7C00
7C00
7800
F800
F800
F000
F000
F000
F000
F800
F8F0
7CF0
7FF0
3FE0
1FE0
0780
ENDCHAR
STARTCHAR M
ENCODING 77
SWIDTH 722 0
DWIDTH 19 0
BBX 17 17 1 0
BITMAP
380E00
7C1E00
7C1F00
7C1F00
FE3F00
FF7F80
FFFF80
FFFF80
F7F780
F3E780
F08F80
F80F80
F80F00
780F00
7C1F00
7C1E00
380E00
ENDCHAR
STARTCHAR N
ENCODING 78
SWIDTH 611 0
DWIDTH 16 0
BBX 14 17 1 0
BITMAP
3870
7CF0
7CF8
7C78
FC7C
FE7C
FF3C
FFBC
FFFC
F7FC
F3FC
F9FC
F8FC
78F8
7CF8
7CF0
3870
ENDCHAR
STARTCHAR O
ENCODING 79
SWIDTH 729 0
DWIDTH 19 0
BBX 17 17 1 0
BITMAP
03E000
0FF800
3FFE00
3FFE00
7E3F00
7C1F00
F80F80
F00780
F00780
F00780
F80F80
F81F00
7E3F00
3FFE00
3FFE00
0FF800
03E000
ENDCHAR
STARTCHAR P
ENCODING 80
SWIDTH 546 0
DWIDTH 14 0
BBX 12 17 1 0
BITMAP
0780
1FE0
3FE0
7FF0
7CF0
F8F0
FBF0
F7F0
F7E0
F7C0
F000
F800
F800
7800
7C00
7C00
3800
ENDCHAR
STARTCHAR Q
ENCODING 81
SWIDTH 612 0
DWIDTH 16 0
BBX 14 17 1 0
BITMAP
0780
1FE0
3FF0
7FF8
7CF8
F878
FB7C
F7BC
F7FC
F7FC
FBFC
F9FC
7DF8
7EF8
3F70
1F00
0E00
ENDCHAR
STARTCHAR R
ENCODING 82
SWIDTH 545 0
DWIDTH 14 0
BBX 12 17 1 0
BITMAP
0780
1FE0
3FE0
7FF0
7CF0
F8F0
FBF0
F7F0
F7F0
F7F0
F0F0
F8F0
F8F0
79F0
7DE0
7DE0
38C0
ENDCHAR
STARTCHAR S
ENCODING 83
SWIDTH 612 0
DWIDTH 16 0
BBX 14 17 1 0
BITMAP
0FC0
3FF8
7FFC
FFFC
FC7C
F810
FFC0
7FF0
7FF8
1FFC
00FC
603C
F8FC
FFFC
FFF8
3FF0
0FC0
ENDCHAR
STARTCHAR T
ENCODING 84
SWIDTH 603 0
DWIDTH 16 0
BBX 14 17 1 0
BITMAP
0FC0
3FF0
7FF8
FFFC
FFFC
F7B8
0780
0780
0780
0780
0780
0780
0780
0780
0780
0780
0700
ENDCHAR
STARTCHAR U
ENCODING 85
SWIDTH 612 0
DWIDTH 16 0
BBX 14 17 1 0
BITMAP
3870
7CF0
7CF8
7878
F87C
F87C
F03C
F03C
F03C
F03C
F87C
F87C
7CF8
7FF8
3FF0
1FE0
0780
ENDCHAR
STARTCHAR V
ENCODING 86
SWIDTH 612 0
DWIDTH 16 0
BBX 14 17 1 0
BITMAP
6038
F03C
F03C
F03C
F03C
F03C
F87C
F87C
7878
7878
7CF8
7CF8
3FF0
3FF0
1FE0
0FC0
0780
ENDCHAR
STARTCHAR W
ENCODING 87
SWIDTH 722 0
DWIDTH 19 0
BBX 17 17 1 0
BITMAP
380E00
7C1E00
7C1F00
780F00
F80F00
F80F80
F08F80
F3E780
F7F780
FFFF80
FFFF80
FF7F80
FE3F00
7C1F00
7C1F00
7C1E00
380E00
ENDCHAR
STARTCHAR X
ENCODING 88
SWIDTH 605 0
DWIDTH 16 0
BBX 14 17 1 0
BITMAP
3870
78F0
78F8
F878
F87C
F87C
F87C
FFFC
7FF8
FFFC
F87C
F87C
F87C
F878
78F8
78F0
3870
ENDCHAR
STARTCHAR Y
ENCODING 89
SWIDTH 605 0
DWIDTH 16 0
BBX 14 17 1 0
BITMAP
3870
78F8
78F8
F878
F07C
F07C
FFFC
FFF8
7FF8
3FF0
0780
0780
0780
0780
0780
0780
0300
ENDCHAR
STARTCHAR Z
ENCODING 90
SWIDTH 612 0
DWIDTH 16 0
BBX 14 17 1 0
BITMAP
0FF8
7FFC
FFFC
FFFC
FDF8
61F0
03E0
07C0
0FC0
0F80
1F00
3E18
7EFC
7FFC
FFFC
FFF0
7FC0
ENDCHAR
STARTCHAR bracketleft
ENCODING 91
SWIDTH 326 0
DWIDTH 8 0
BBX 7 20 1 -2
BITMAP
FC
FE
FC
FC
F0
F0
F0
F0
F0
F0
F0
F0
F0
F0
F0
F0
FC
FE
FC
7C
ENDCHAR
STARTCHAR backslash
ENCODING 92
SWIDTH 605 0
DWIDTH 16 0
BBX 14 17 1 0
BITMAP
6000
F000
F800
FC00
7C00
3E00
1F00
1F80
0F80
07C0
03E0
03F0
01F0
00F8
007C
007C
0038
ENDCHAR
STARTCHAR bracketright
ENCODING 93
SWIDTH 326 0
DWIDTH 8 0
BBX 7 20 1 -2
BITMAP
FC
FC
FE
7E
3E
3E
3E
3E
3E
3E
3E
3E
3E
3E
3E
3E
FE
FE
FC
7C
ENDCHAR
STARTCHAR asciicircum
ENCODING 94
SWIDTH 332 0
DWIDTH 9 0
BBX 7 5 1 12
BITMAP
38
7C
FE
FE
7C
ENDCHAR
STARTCHAR underscore
ENCODING 95
SWIDTH 723 0
DWIDTH 19 0
BBX 17 4 1 -5
BITMAP
FFFF00
FFFF80
FFFF80
7FFF00
ENDCHAR
STARTCHAR grave
ENCODING 96
SWIDTH 284 0
DWIDTH 7 0
BBX 5 5 1 12
BITMAP
60
F8
F8
78
38
ENDCHAR
STARTCHAR a
ENCODING 97
SWIDTH 588 0
DWIDTH 15 0
BBX 13 13 1 0
BITMAP
0F80
3FC0
7FE0
7FF0
F9F8
F0F8
F078
F078
F878
7F78
7F78
3F78
0F30
ENDCHAR
STARTCHAR b
ENCODING 98
SWIDTH 588 0
DWIDTH 15 0
BBX 13 17 1 0
BITMAP
3800
7C00
7C00
7800
FB80
FFE0
F7F0
F7F8
F0F8
F078
F878
F878
7CF8
7FF8
3FF0
1FE0
07C0
ENDCHAR
STARTCHAR c
ENCODING 99
SWIDTH 517 0
DWIDTH 13 0
BBX 12 13 1 0
BITMAP
0F80
3FC0
7FE0
7FF0
FDE0
F040
F000
F040
F9E0
7FF0
7FE0
3FC0
0F80
ENDCHAR
STARTCHAR d
ENCODING 100
SWIDTH 588 0
DWIDTH 15 0
BBX 13 17 1 0
BITMAP
00E0
00F0
00F0
00F8
0FF8
3F78
7F78
7F78
F878
F078
F078
F0F8
F9F8
7FF0
7FE0
3FC0
0F80
ENDCHAR
STARTCHAR e
ENCODING 101
SWIDTH 542 0
DWIDTH 14 0
BBX 12 13 1 0
BITMAP
0F80
3FC0
7FE0
7FF0
FDF0
F7F0
FFE0
FFC0
FFE0
7FF0
7FE0
3FC0
0F80
ENDCHAR
STARTCHAR f
ENCODING 102
SWIDTH 583 0
DWIDTH 15 0
BBX 13 17 1 0
BITMAP
0FC0
1FE0
3FF0
7FF8
7CF8
F878
F878
F810
FC00
FF80
FF80
FF80
FF00
7800
7C00
7C00
3800
ENDCHAR
STARTCHAR g
ENCODING 103
SWIDTH 588 0
DWIDTH 15 0
BBX 13 17 1 -4
BITMAP
0F80
3FC0
7FE0
7FF0
F9F8
F0F8
F078
F078
F878
7F78
7F78
3FF8
0FF8
07F0
0FE0
0FC0
0780
ENDCHAR
STARTCHAR h
ENCODING 104
SWIDTH 572 0
DWIDTH 15 0
BBX 13 17 1 0
BITMAP
3800
7C00
7C00
7800
FF80
FFE0
FFF0
FFF0
FDF8
F8F8
F078
F078
F8F8
78F8
7DF0
7CF0
38E0
ENDCHAR
STARTCHAR i
ENCODING 105
SWIDTH 337 0
DWIDTH 9 0
BBX 7 17 1 0
BITMAP
1C
1E
1E
1C
30
78
78
F8
F0
F0
F0
F0
F0
F8
78
78
30
ENDCHAR
STARTCHAR j
ENCODING 106
SWIDTH 424 0
DWIDTH 11 0
BBX 9 21 1 -4
BITMAP
1800
3C00
3C00
3C00
0E00
1F00
1F00
0F00
0F80
0F80
0780
0780
0780
0780
0F80
0F80
1F00
FF00
FE00
FC00
7000
ENDCHAR
STARTCHAR k
ENCODING 107
SWIDTH 572 0
DWIDTH 15 0
BBX 13 17 1 0
BITMAP
3800
7C00
7C00
7800
F8E0
F8F0
F1F0
F0F8
F0F8
F7F8
F7F0
F7F8
FBF8
78F8
7CF8
7DF0
38E0
ENDCHAR
STARTCHAR l
ENCODING 108
SWIDTH 291 0
DWIDTH 8 0
BBX 6 17 1 0
BITMAP
38
7C
7C
78
F8
F8
F0
F0
F0
F0
F0
F0
F8
78
7C
7C
38
ENDCHAR
STARTCHAR m
ENCODING 109
SWIDTH 893 0
DWIDTH 23 0
BBX 21 13 1 0
BITMAP
0F8FC0
3FDFE0
7FFFF0
7FFFF8
FDFCF8
F0F878
F0F878
F07078
F82078
F800F8
7800F8
7800F0
380060
ENDCHAR
STARTCHAR n
ENCODING 110
SWIDTH 565 0
DWIDTH 15 0
BBX 13 13 1 0
BITMAP
0F80
3FC0
7FE0
7FF0
FDF0
F0F8
F0F8
F0F8
F8F8
F8F0
79F0
79E0
38E0
ENDCHAR
STARTCHAR o
ENCODING 111
SWIDTH 564 0
DWIDTH 15 0
BBX 13 13 1 0
BITMAP
0F80
3FC0
7FE0
7FF0
F9F0
F0F8
F0F8
F0F8
F9F0
7FF0
7FE0
3FC0
0F80
ENDCHAR
STARTCHAR p
ENCODING 112
SWIDTH 588 0
DWIDTH 15 0
BBX 13 17 1 -4
BITMAP
07C0
1FE0
3FF0
7FF8
7CF8
F878
F878
F078
F0F8
F7F8
F7F0
FFE0
FB80
7800
7C00
7C00
3800
ENDCHAR
STARTCHAR q
ENCODING 113
SWIDTH 588 0
DWIDTH 15 0
BBX 13 17 1 -4
BITMAP
0F80
3FC0
7FE0
7FF0
F9F8
F0F8
F078
F078
F878
7F78
7F78
3F78
0FF8
00F8
00F0
00F0
00E0
ENDCHAR
STARTCHAR r
ENCODING 114
SWIDTH 565 0
DWIDTH 15 0
BBX 13 13 1 0
BITMAP
0F80
3FC0
7FE0
7FF0
FDF0
F0F8
F078
F078
F820
F800
7800
7800
3800
ENDCHAR
STARTCHAR s
ENCODING 115
SWIDTH 564 0
DWIDTH 15 0
BBX 13 13 1 0
BITMAP
1FF0
3FF8
7FF8
FFF0
FF00
FFE0
7FF0
3FF0
0FF0
FFF0
FFF0
FFE0
7F80
ENDCHAR
STARTCHAR t
ENCODING 116
SWIDTH 583 0
DWIDTH 15 0
BBX 13 17 1 0
BITMAP
3800
7C00
7C00
7800
FF00
FF80
FF80
FF80
FC00
F810
F878
F878
7CF8
7FF8
3FF0
1FE0
0FC0
ENDCHAR
STARTCHAR u
ENCODING 117
SWIDTH 565 0
DWIDTH 15 0
BBX 13 13 1 0
BITMAP
38E0
79E0
79F0
F8F0
F8F8
F0F8
F0F8
F0F8
F9F0
7FF0
7FE0
3FC0
0F80
ENDCHAR
STARTCHAR v
ENCODING 118
SWIDTH 565 0
DWIDTH 15 0
BBX 13 13 1 0
BITMAP
6070
F078
F0F8
F0F8
F0F8
F8F0
F8F0
79F0
7DF0
3FE0
3FE0
1FC0
0F00
ENDCHAR
STARTCHAR w
ENCODING 119
SWIDTH 893 0
DWIDTH 23 0
BBX 21 13 1 0
BITMAP
380060
7800F0
7800F0
F800F8
F82078
F07078
F0F878
F0F878
F9FCF8
7FFFF8
7FFFF0
3FDFE0
0F8F80
ENDCHAR
STARTCHAR x
ENCODING 120
SWIDTH 565 0
DWIDTH 15 0
BBX 13 13 1 0
BITMAP
38E0
79F0
F9F0
F8F8
F9F8
FFF8
FFF0
FFF0
FFF8
F8F8
F9F0
79F0
38E0
ENDCHAR
STARTCHAR y
ENCODING 121
SWIDTH 572 0
DWIDTH 15 0
BBX 13 17 1 -4
BITMAP
38E0
79E0
79F0
F8F0
F8F8
F0F8
F0F8
F0F8
F9F8
7FF8
7FF8
3FF0
0FF0
0FF0
0FE0
0FC0
0700
ENDCHAR
STARTCHAR z
ENCODING 122
SWIDTH 611 0
DWIDTH 16 0
BBX 14 13 1 0
BITMAP
1FF8
7FFC
FFFC
FFF8
FBF0
07E0
0FC0
1F80
3F7C
7FFC
FFFC
FFF8
7FE0
ENDCHAR
STARTCHAR braceleft
ENCODING 123
SWIDTH 369 0
DWIDTH 10 0
BBX 8 22 1 -3
BITMAP
1E
3F
3F
3E
3C
3C
3C
3C
7C
7C
F8
F8
7C
7C
3C
3C
3C
3C
3E
3F
3F
1E
ENDCHAR
STARTCHAR bar
ENCODING 124
SWIDTH 236 0
DWIDTH 6 0
BBX 4 22 1 -2
BITMAP
60
F0
F0
F0
F0
F0
F0
F0
F0
F0
F0
F0
F0
F0
F0
F0
F0
F0
F0
F0
F0
60
ENDCHAR
STARTCHAR braceright
ENCODING 125
SWIDTH 369 0
DWIDTH 10 0
BBX 8 22 1 -3
BITMAP
70
F8
FC
FC
7C
7C
7C
7C
3C
3E
3F
3F
3E
3C
7C
7C
7C
7C
FC
FC
F8
70
ENDCHAR
STARTCHAR asciitilde
ENCODING 126
SWIDTH 701 0
DWIDTH 18 0
BBX 16 6 1 6
BITMAP
3F00
FFCF
FFFF
FFFF
73FF
007C
ENDCHAR
STARTCHAR space.dup2
ENCODING 160
SWIDTH 248 0
DWIDTH 6 0
BBX 1 1 0 0
BITMAP
00
ENDCHAR
STARTCHAR exclamdown
ENCODING 161
SWIDTH 328 0
DWIDTH 9 0
BBX 1 1 0 0
BITMAP
00
ENDCHAR
STARTCHAR cent
ENCODING 162
SWIDTH 556 0
DWIDTH 14 0
BBX 1 1 0 0
BITMAP
00
ENDCHAR
STARTCHAR sterling
ENCODING 163
SWIDTH 495 0
DWIDTH 13 0
BBX 1 1 0 0
BITMAP
00
ENDCHAR
STARTCHAR currency
ENCODING 164
SWIDTH 495 0
DWIDTH 13 0
BBX 1 1 0 0
BITMAP
00
ENDCHAR
STARTCHAR yen
ENCODING 165
SWIDTH 616 0
DWIDTH 16 0
BBX 1 1 0 0
BITMAP
00
ENDCHAR
STARTCHAR brokenbar
ENCODING 166
SWIDTH 495 0
DWIDTH 13 0
BBX 1 1 0 0
BITMAP
00
ENDCHAR
STARTCHAR section
ENCODING 167
SWIDTH 495 0
DWIDTH 13 0
BBX 1 1 0 0
BITMAP
00
ENDCHAR
STARTCHAR dieresis
ENCODING 168
SWIDTH 500 0
DWIDTH 13 0
BBX 1 1 0 0
BITMAP
00
ENDCHAR
STARTCHAR copyright
ENCODING 169
SWIDTH 817 0
DWIDTH 21 0
BBX 1 1 0 0
BITMAP
00
ENDCHAR
STARTCHAR ordfeminine
ENCODING 170
SWIDTH 316 0
DWIDTH 8 0
BBX 1 1 0 0
BITMAP
00
ENDCHAR
STARTCHAR guillemotleft
ENCODING 171
SWIDTH 460 0
DWIDTH 12 0
BBX 1 1 0 0
BITMAP
00
ENDCHAR
STARTCHAR logicalnot
ENCODING 172
SWIDTH 495 0
DWIDTH 13 0
BBX 1 1 0 0
BITMAP
00
ENDCHAR
STARTCHAR hyphen.dup3
ENCODING 173
SWIDTH 584 0
DWIDTH 15 0
BBX 13 4 1 6
BITMAP
FFF8
FFF8
FFF8
7FF0
ENDCHAR
STARTCHAR registered
ENCODING 174
SWIDTH 817 0
DWIDTH 21 0
BBX 1 1 0 0
BITMAP
00
ENDCHAR
STARTCHAR macron
ENCODING 175
SWIDTH 327 0
DWIDTH 9 0
BBX 1 1 0 0
BITMAP
00
ENDCHAR
STARTCHAR degree
ENCODING 176
SWIDTH 329 0
DWIDTH 9 0
BBX 1 1 0 0
BITMAP
00
ENDCHAR
STARTCHAR plusminus
ENCODING 177
SWIDTH 495 0
DWIDTH 13 0
BBX 1 1 0 0
BITMAP
00
ENDCHAR
STARTCHAR uni00B2
ENCODING 178
SWIDTH 495 0
DWIDTH 13 0
BBX 1 1 0 0
BITMAP
00
ENDCHAR
STARTCHAR uni00B3
ENCODING 179
SWIDTH 495 0
DWIDTH 13 0
BBX 1 1 0 0
BITMAP
00
ENDCHAR
STARTCHAR acute
ENCODING 180
SWIDTH 500 0
DWIDTH 13 0
BBX 1 1 0 0
BITMAP
00
ENDCHAR
STARTCHAR mu
ENCODING 181
SWIDTH 576 0
DWIDTH 15 0
BBX 1 1 0 0
BITMAP
00
ENDCHAR
STARTCHAR paragraph
ENCODING 182
SWIDTH 500 0
DWIDTH 13 0
BBX 1 1 0 0
BITMAP
00
ENDCHAR
STARTCHAR periodcentered
ENCODING 183
SWIDTH 248 0
DWIDTH 6 0
BBX 1 1 0 0
BITMAP
00
ENDCHAR
STARTCHAR cedilla
ENCODING 184
SWIDTH 500 0
DWIDTH 13 0
BBX 1 1 0 0
BITMAP
00
ENDCHAR
STARTCHAR uni00B9
ENCODING 185
SWIDTH 495 0
DWIDTH 13 0
BBX 1 1 0 0
BITMAP
00
ENDCHAR
STARTCHAR ordmasculine
ENCODING 186
SWIDTH 350 0
DWIDTH 9 0
BBX 1 1 0 0
BITMAP
00
ENDCHAR
STARTCHAR guillemotright
ENCODING 187
SWIDTH 460 0
DWIDTH 12 0
BBX 1 1 0 0
BITMAP
00
ENDCHAR
STARTCHAR onequarter
ENCODING 188
SWIDTH 833 0
DWIDTH 22 0
BBX 1 1 0 0
BITMAP
00
ENDCHAR
STARTCHAR onehalf
ENCODING 189
SWIDTH 958 0
DWIDTH 25 0
BBX 1 1 0 0
BITMAP
00
ENDCHAR
STARTCHAR threequarters
ENCODING 190
SWIDTH 833 0
DWIDTH 22 0
BBX 1 1 0 0
BITMAP
00
ENDCHAR
STARTCHAR questiondown
ENCODING 191
SWIDTH 365 0
DWIDTH 10 0
BBX 1 1 0 0
BITMAP
00
ENDCHAR
STARTCHAR Agrave
ENCODING 192
SWIDTH 751 0
DWIDTH 20 0
BBX 1 1 0 0
BITMAP
00
ENDCHAR
STARTCHAR Aacute
ENCODING 193
SWIDTH 751 0
DWIDTH 20 0
BBX 1 1 0 0
BITMAP
00
ENDCHAR
STARTCHAR Acircumflex
ENCODING 194
SWIDTH 751 0
DWIDTH 20 0
BBX 1 1 0 0
BITMAP
00
ENDCHAR
STARTCHAR Atilde
ENCODING 195
SWIDTH 751 0
DWIDTH 20 0
BBX 1 1 0 0
BITMAP
00
ENDCHAR
STARTCHAR Adieresis
ENCODING 196
SWIDTH 751 0
DWIDTH 20 0
BBX 1 1 0 0
BITMAP
00
ENDCHAR
STARTCHAR Aring
ENCODING 197
SWIDTH 751 0
DWIDTH 20 0
BBX 1 1 0 0
BITMAP
00
ENDCHAR
STARTCHAR AE
ENCODING 198
SWIDTH 1034 0
DWIDTH 27 0
BBX 1 1 0 0
BITMAP
00
ENDCHAR
STARTCHAR Ccedilla
ENCODING 199
SWIDTH 683 0
DWIDTH 18 0
BBX 1 1 0 0
BITMAP
00
ENDCHAR
STARTCHAR Egrave
ENCODING 200
SWIDTH 562 0
DWIDTH 15 0
BBX 1 1 0 0
BITMAP
00
ENDCHAR
STARTCHAR Eacute
ENCODING 201
SWIDTH 562 0
DWIDTH 15 0
BBX 1 1 0 0
BITMAP
00
ENDCHAR
STARTCHAR Ecircumflex
ENCODING 202
SWIDTH 562 0
DWIDTH 15 0
BBX 1 1 0 0
BITMAP
00
ENDCHAR
STARTCHAR Edieresis
ENCODING 203
SWIDTH 562 0
DWIDTH 15 0
BBX 1 1 0 0
BITMAP
00
ENDCHAR
STARTCHAR Igrave
ENCODING 204
SWIDTH 320 0
DWIDTH 8 0
BBX 1 1 0 0
BITMAP
00
ENDCHAR
STARTCHAR Iacute
ENCODING 205
SWIDTH 320 0
DWIDTH 8 0
BBX 1 1 0 0
BITMAP
00
ENDCHAR
STARTCHAR Icircumflex
ENCODING 206
SWIDTH 320 0
DWIDTH 8 0
BBX 1 1 0 0
BITMAP
00
ENDCHAR
STARTCHAR Idieresis
ENCODING 207
SWIDTH 320 0
DWIDTH 8 0
BBX 1 1 0 0
BITMAP
00
ENDCHAR
STARTCHAR Eth
ENCODING 208
SWIDTH 741 0
DWIDTH 19 0
BBX 1 1 0 0
BITMAP
00
ENDCHAR
STARTCHAR Ntilde
ENCODING 209
SWIDTH 758 0
DWIDTH 20 0
BBX 1 1 0 0
BITMAP
00
ENDCHAR
STARTCHAR Ograve
ENCODING 210
SWIDTH 788 0
DWIDTH 20 0
BBX 1 1 0 0
BITMAP
00
ENDCHAR
STARTCHAR Oacute
ENCODING 211
SWIDTH 788 0
DWIDTH 20 0
BBX 1 1 0 0
BITMAP
00
ENDCHAR
STARTCHAR Ocircumflex
ENCODING 212
SWIDTH 788 0
DWIDTH 20 0
BBX 1 1 0 0
BITMAP
00
ENDCHAR
STARTCHAR Otilde
ENCODING 213
SWIDTH 788 0
DWIDTH 20 0
BBX 1 1 0 0
BITMAP
00
ENDCHAR
STARTCHAR Odieresis
ENCODING 214
SWIDTH 788 0
DWIDTH 20 0
BBX 1 1 0 0
BITMAP
00
ENDCHAR
STARTCHAR multiply
ENCODING 215
SWIDTH 495 0
DWIDTH 13 0
BBX 1 1 0 0
BITMAP
00
ENDCHAR
STARTCHAR Oslash
ENCODING 216
SWIDTH 788 0
DWIDTH 20 0
BBX 1 1 0 0
BITMAP
00
ENDCHAR
STARTCHAR Ugrave
ENCODING 217
SWIDTH 732 0
DWIDTH 19 0
BBX 1 1 0 0
BITMAP
00
ENDCHAR
STARTCHAR Uacute
ENCODING 218
SWIDTH 732 0
DWIDTH 19 0
BBX 1 1 0 0
BITMAP
00
ENDCHAR
STARTCHAR Ucircumflex
ENCODING 219
SWIDTH 732 0
DWIDTH 19 0
BBX 1 1 0 0
BITMAP
00
ENDCHAR
STARTCHAR Udieresis
ENCODING 220
SWIDTH 732 0
DWIDTH 19 0
BBX 1 1 0 0
BITMAP
00
ENDCHAR
STARTCHAR Yacute
ENCODING 221
SWIDTH 602 0
DWIDTH 16 0
BBX 1 1 0 0
BITMAP
00
ENDCHAR
STARTCHAR Thorn
ENCODING 222
SWIDTH 546 0
DWIDTH 14 0
BBX 1 1 0 0
BITMAP
00
ENDCHAR
STARTCHAR germandbls
ENCODING 223
SWIDTH 610 0
DWIDTH 16 0
BBX 1 1 0 0
BITMAP
00
ENDCHAR
STARTCHAR agrave
ENCODING 224
SWIDTH 450 0
DWIDTH 12 0
BBX 1 1 0 0
BITMAP
00
ENDCHAR
STARTCHAR aacute
ENCODING 225
SWIDTH 450 0
DWIDTH 12 0
BBX 1 1 0 0
BITMAP
00
ENDCHAR
STARTCHAR acircumflex
ENCODING 226
SWIDTH 450 0
DWIDTH 12 0
BBX 1 1 0 0
BITMAP
00
ENDCHAR
STARTCHAR atilde
ENCODING 227
SWIDTH 450 0
DWIDTH 12 0
BBX 1 1 0 0
BITMAP
00
ENDCHAR
STARTCHAR adieresis
ENCODING 228
SWIDTH 450 0
DWIDTH 12 0
BBX 1 1 0 0
BITMAP
00
ENDCHAR
STARTCHAR aring
ENCODING 229
SWIDTH 450 0
DWIDTH 12 0
BBX 1 1 0 0
BITMAP
00
ENDCHAR
STARTCHAR ae
ENCODING 230
SWIDTH 709 0
DWIDTH 18 0
BBX 1 1 0 0
BITMAP
00
ENDCHAR
STARTCHAR ccedilla
ENCODING 231
SWIDTH 441 0
DWIDTH 11 0
BBX 1 1 0 0
BITMAP
00
ENDCHAR
STARTCHAR egrave
ENCODING 232
SWIDTH 443 0
DWIDTH 12 0
BBX 1 1 0 0
BITMAP
00
ENDCHAR
STARTCHAR eacute
ENCODING 233
SWIDTH 443 0
DWIDTH 12 0
BBX 1 1 0 0
BITMAP
00
ENDCHAR
STARTCHAR ecircumflex
ENCODING 234
SWIDTH 443 0
DWIDTH 12 0
BBX 1 1 0 0
BITMAP
00
ENDCHAR
STARTCHAR edieresis
ENCODING 235
SWIDTH 443 0
DWIDTH 12 0
BBX 1 1 0 0
BITMAP
00
ENDCHAR
STARTCHAR igrave
ENCODING 236
SWIDTH 250 0
DWIDTH 7 0
BBX 1 1 0 0
BITMAP
00
ENDCHAR
STARTCHAR iacute
ENCODING 237
SWIDTH 250 0
DWIDTH 7 0
BBX 1 1 0 0
BITMAP
00
ENDCHAR
STARTCHAR icircumflex
ENCODING 238
SWIDTH 250 0
DWIDTH 7 0
BBX 1 1 0 0
BITMAP
00
ENDCHAR
STARTCHAR idieresis
ENCODING 239
SWIDTH 250 0
DWIDTH 7 0
BBX 1 1 0 0
BITMAP
00
ENDCHAR
STARTCHAR eth
ENCODING 240
SWIDTH 556 0
DWIDTH 14 0
BBX 1 1 0 0
BITMAP
00
ENDCHAR
STARTCHAR ntilde
ENCODING 241
SWIDTH 541 0
DWIDTH 14 0
BBX 1 1 0 0
BITMAP
00
ENDCHAR
STARTCHAR ograve
ENCODING 242
SWIDTH 493 0
DWIDTH 13 0
BBX 1 1 0 0
BITMAP
00
ENDCHAR
STARTCHAR oacute
ENCODING 243
SWIDTH 493 0
DWIDTH 13 0
BBX 1 1 0 0
BITMAP
00
ENDCHAR
STARTCHAR ocircumflex
ENCODING 244
SWIDTH 493 0
DWIDTH 13 0
BBX 1 1 0 0
BITMAP
00
ENDCHAR
STARTCHAR otilde
ENCODING 245
SWIDTH 493 0
DWIDTH 13 0
BBX 1 1 0 0
BITMAP
00
ENDCHAR
STARTCHAR odieresis
ENCODING 246
SWIDTH 493 0
DWIDTH 13 0
BBX 1 1 0 0
BITMAP
00
ENDCHAR
STARTCHAR divide
ENCODING 247
SWIDTH 495 0
DWIDTH 13 0
BBX 1 1 0 0
BITMAP
00
ENDCHAR
STARTCHAR oslash
ENCODING 248
SWIDTH 493 0
DWIDTH 13 0
BBX 1 1 0 0
BITMAP
00
ENDCHAR
STARTCHAR ugrave
ENCODING 249
SWIDTH 517 0
DWIDTH 13 0
BBX 1 1 0 0
BITMAP
00
ENDCHAR
STARTCHAR uacute
ENCODING 250
SWIDTH 517 0
DWIDTH 13 0
BBX 1 1 0 0
BITMAP
00
ENDCHAR
STARTCHAR ucircumflex
ENCODING 251
SWIDTH 517 0
DWIDTH 13 0
BBX 1 1 0 0
BITMAP
00
ENDCHAR
STARTCHAR udieresis
ENCODING 252
SWIDTH 517 0
DWIDTH 13 0
BBX 1 1 0 0
BITMAP
00
ENDCHAR
STARTCHAR yacute
ENCODING 253
SWIDTH 423 0
DWIDTH 11 0
BBX 1 1 0 0
BITMAP
00
ENDCHAR
STARTCHAR thorn
ENCODING 254
SWIDTH 493 0
DWIDTH 13 0
BBX 1 1 0 0
BITMAP
00
ENDCHAR
STARTCHAR ydieresis
ENCODING 255
SWIDTH 423 0
DWIDTH 11 0
BBX 1 1 0 0
BITMAP
00
ENDCHAR
STARTCHAR dotlessi
ENCODING 305
SWIDTH 250 0
DWIDTH 7 0
BBX 1 1 0 0
BITMAP
00
ENDCHAR
STARTCHAR circumflex
ENCODING 710
SWIDTH 500 0
DWIDTH 13 0
BBX 1 1 0 0
BITMAP
00
ENDCHAR
STARTCHAR caron
ENCODING 711
SWIDTH 500 0
DWIDTH 13 0
BBX 1 1 0 0
BITMAP
00
ENDCHAR
STARTCHAR uni02C9
ENCODING 713
SWIDTH 500 0
DWIDTH 13 0
BBX 1 1 0 0
BITMAP
00
ENDCHAR
STARTCHAR breve
ENCODING 728
SWIDTH 500 0
DWIDTH 13 0
BBX 1 1 0 0
BITMAP
00
ENDCHAR
STARTCHAR dotaccent
ENCODING 729
SWIDTH 500 0
DWIDTH 13 0
BBX 1 1 0 0
BITMAP
00
ENDCHAR
STARTCHAR ring
ENCODING 730
SWIDTH 500 0
DWIDTH 13 0
BBX 1 1 0 0
BITMAP
00
ENDCHAR
STARTCHAR ogonek
ENCODING 731
SWIDTH 500 0
DWIDTH 13 0
BBX 1 1 0 0
BITMAP
00
ENDCHAR
STARTCHAR tilde
ENCODING 732
SWIDTH 500 0
DWIDTH 13 0
BBX 1 1 0 0
BITMAP
00
ENDCHAR
STARTCHAR hungarumlaut
ENCODING 733
SWIDTH 500 0
DWIDTH 13 0
BBX 1 1 0 0
BITMAP
00
ENDCHAR
STARTCHAR semicolon.dup4
ENCODING 894
SWIDTH 236 0
DWIDTH 6 0
BBX 4 13 1 1
BITMAP
F0
F0
F0
60
00
00
00
60
F0
F0
F0
60
60
ENDCHAR
STARTCHAR endash
ENCODING 8211
SWIDTH 541 0
DWIDTH 14 0
BBX 1 1 0 0
BITMAP
00
ENDCHAR
STARTCHAR emdash
ENCODING 8212
SWIDTH 1000 0
DWIDTH 26 0
BBX 1 1 0 0
BITMAP
00
ENDCHAR
STARTCHAR quoteleft
ENCODING 8216
SWIDTH 271 0
DWIDTH 7 0
BBX 1 1 0 0
BITMAP
00
ENDCHAR
STARTCHAR quoteright
ENCODING 8217
SWIDTH 271 0
DWIDTH 7 0
BBX 1 1 0 0
BITMAP
00
ENDCHAR
STARTCHAR quotesinglbase
ENCODING 8218
SWIDTH 271 0
DWIDTH 7 0
BBX 1 1 0 0
BITMAP
00
ENDCHAR
STARTCHAR quotedblleft
ENCODING 8220
SWIDTH 444 0
DWIDTH 12 0
BBX 1 1 0 0
BITMAP
00
ENDCHAR
STARTCHAR quotedblright
ENCODING 8221
SWIDTH 444 0
DWIDTH 12 0
BBX 1 1 0 0
BITMAP
00
ENDCHAR
STARTCHAR quotedblbase
ENCODING 8222
SWIDTH 444 0
DWIDTH 12 0
BBX 1 1 0 0
BITMAP
00
ENDCHAR
STARTCHAR dagger
ENCODING 8224
SWIDTH 495 0
DWIDTH 13 0
BBX 1 1 0 0
BITMAP
00
ENDCHAR
STARTCHAR daggerdbl
ENCODING 8225
SWIDTH 495 0
DWIDTH 13 0
BBX 1 1 0 0
BITMAP
00
ENDCHAR
STARTCHAR bullet
ENCODING 8226
SWIDTH 500 0
DWIDTH 13 0
BBX 1 1 0 0
BITMAP
00
ENDCHAR
STARTCHAR ellipsis
ENCODING 8230
SWIDTH 1000 0
DWIDTH 26 0
BBX 1 1 0 0
BITMAP
00
ENDCHAR
STARTCHAR guilsinglleft
ENCODING 8249
SWIDTH 308 0
DWIDTH 8 0
BBX 1 1 0 0
BITMAP
00
ENDCHAR
STARTCHAR guilsinglright
ENCODING 8250
SWIDTH 308 0
DWIDTH 8 0
BBX 1 1 0 0
BITMAP
00
ENDCHAR
STARTCHAR fraction
ENCODING 8260
SWIDTH 166 0
DWIDTH 4 0
BBX 1 1 0 0
BITMAP
00
ENDCHAR
STARTCHAR franc
ENCODING 8355
SWIDTH 495 0
DWIDTH 13 0
BBX 1 1 0 0
BITMAP
00
ENDCHAR
STARTCHAR lira
ENCODING 8356
SWIDTH 495 0
DWIDTH 13 0
BBX 1 1 0 0
BITMAP
00
ENDCHAR
STARTCHAR peseta
ENCODING 8359
SWIDTH 990 0
DWIDTH 26 0
BBX 1 1 0 0
BITMAP
00
ENDCHAR
STARTCHAR Euro
ENCODING 8364
SWIDTH 495 0
DWIDTH 13 0
BBX 1 1 0 0
BITMAP
00
ENDCHAR
STARTCHAR uni2116
ENCODING 8470
SWIDTH 1108 0
DWIDTH 29 0
BBX 1 1 0 0
BITMAP
00
ENDCHAR
STARTCHAR trademark
ENCODING 8482
SWIDTH 730 0
DWIDTH 19 0
BBX 1 1 0 0
BITMAP
00
ENDCHAR
STARTCHAR partialdiff
ENCODING 8706
SWIDTH 495 0
DWIDTH 13 0
BBX 1 1 0 0
BITMAP
00
ENDCHAR
STARTCHAR Delta
ENCODING 8710
SWIDTH 527 0
DWIDTH 14 0
BBX 1 1 0 0
BITMAP
00
ENDCHAR
STARTCHAR product
ENCODING 8719
SWIDTH 739 0
DWIDTH 19 0
BBX 1 1 0 0
BITMAP
00
ENDCHAR
STARTCHAR summation
ENCODING 8721
SWIDTH 588 0
DWIDTH 15 0
BBX 1 1 0 0
BITMAP
00
ENDCHAR
STARTCHAR minus
ENCODING 8722
SWIDTH 495 0
DWIDTH 13 0
BBX 1 1 0 0
BITMAP
00
ENDCHAR
STARTCHAR fraction.dup5
ENCODING 8725
SWIDTH 166 0
DWIDTH 4 0
BBX 1 1 0 0
BITMAP
00
ENDCHAR
STARTCHAR periodcentered.dup6
ENCODING 8729
SWIDTH 248 0
DWIDTH 6 0
BBX 1 1 0 0
BITMAP
00
ENDCHAR
STARTCHAR radical
ENCODING 8730
SWIDTH 495 0
DWIDTH 13 0
BBX 1 1 0 0
BITMAP
00
ENDCHAR
STARTCHAR infinity
ENCODING 8734
SWIDTH 495 0
DWIDTH 13 0
BBX 1 1 0 0
BITMAP
00
ENDCHAR
STARTCHAR integral
ENCODING 8747
SWIDTH 324 0
DWIDTH 8 0
BBX 1 1 0 0
BITMAP
00
ENDCHAR
STARTCHAR approxequal
ENCODING 8776
SWIDTH 495 0
DWIDTH 13 0
BBX 1 1 0 0
BITMAP
00
ENDCHAR
STARTCHAR lessequal
ENCODING 8804
SWIDTH 495 0
DWIDTH 13 0
BBX 1 1 0 0
BITMAP
00
ENDCHAR
STARTCHAR greaterequal
ENCODING 8805
SWIDTH 495 0
DWIDTH 13 0
BBX 1 1 0 0
BITMAP
00
ENDCHAR
STARTCHAR uniF001
ENCODING 61441
SWIDTH 523 0
DWIDTH 14 0
BBX 1 1 0 0
BITMAP
00
ENDCHAR
STARTCHAR uniF002
ENCODING 61442
SWIDTH 527 0
DWIDTH 14 0
BBX 1 1 0 0
BITMAP
00
ENDCHAR
STARTCHAR uniF001.dup7
ENCODING 64257
SWIDTH 523 0
DWIDTH 14 0
BBX 1 1 0 0
BITMAP
00
ENDCHAR
STARTCHAR uniF002.dup8
ENCODING 64258
SWIDTH 527 0
DWIDTH 14 0
BBX 1 1 0 0
BITMAP
00
ENDCHAR
STARTCHAR .notdef
ENCODING -1
SWIDTH 667 0
DWIDTH 17 0
BBX 15 17 1 0
BITMAP
0FE0
3FF8
7FFC
FFFE
FC7E
F01E
70FE
03FE
03FE
03F8
03C0
0180
0000
0380
03C0
03C0
0380
ENDCHAR
STARTCHAR nonmarkingreturn
ENCODING -1
SWIDTH 248 0
DWIDTH 6 0
BBX 1 1 0 0
BITMAP
00
ENDCHAR
ENDFONT
